<svg width="600" height="926" viewBox="0 0 600 926" fill="none" xmlns="http://www.w3.org/2000/svg">
<g clip-path="url(#clip0_150_2)">
<path d="M324.66 -13L375.322 74.75H273.998L324.66 -13Z" fill="#EC5E95" fill-opacity="0.15"/>
<path d="M108.661 -8L159.323 79.75H57.998L108.661 -8Z" fill="#DD0A5C" fill-opacity="0.15"/>
<path d="M269.66 84L320.322 171.75H218.998L269.66 84Z" fill="#EF367E" fill-opacity="0.15"/>
<path d="M488.66 453L539.322 540.75H437.998L488.66 453Z" fill="#700831" fill-opacity="0.15"/>
<path d="M324.66 546L375.322 633.75H273.998L324.66 546Z" fill="#EF367E" fill-opacity="0.15"/>
<path d="M324.66 546L375.322 633.75H273.998L324.66 546Z" fill="#EF367E" fill-opacity="0.15"/>
<path d="M50.6605 79L101.323 166.75H-0.00195312L50.6605 79Z" fill="#FFB9D4" fill-opacity="0.15"/>
<path d="M319.66 364L370.322 451.75H268.998L319.66 364Z" fill="#EF367E" fill-opacity="0.15"/>
<path d="M212.66 737L263.322 824.75H161.998L212.66 737Z" fill="#EF367E" fill-opacity="0.15"/>
<path d="M214.66 548L265.322 635.75H163.998L214.66 548Z" fill="#EF367E" fill-opacity="0.15"/>
<path d="M161.66 643L212.322 730.75H110.998L161.66 643Z" fill="#FFCFE2" fill-opacity="0.15"/>
<path d="M269.66 84L320.322 171.75H218.998L269.66 84Z" fill="#EF367E" fill-opacity="0.15"/>
<path d="M378.66 453L429.322 540.75H327.998L378.66 453Z" fill="#A55373" fill-opacity="0.15"/>
<path d="M430.66 354L379.998 266.25H481.322L430.66 354Z" fill="#EF367E" fill-opacity="0.15"/>
<path d="M51.6605 260L0.998047 172.25H102.323L51.6605 260Z" fill="#EF367E" fill-opacity="0.15"/>
<path d="M436.66 167L385.998 79.25H487.322L436.66 167Z" fill="#A30945" fill-opacity="0.15"/>
<path d="M481.66 447L430.998 359.25H532.322L481.66 447Z" fill="#EF367E" fill-opacity="0.15"/>
<path d="M55.6605 632L4.99805 544.25H106.323L55.6605 632Z" fill="#FF619E" fill-opacity="0.15"/>
<path d="M487.66 819L436.998 731.25H538.322L487.66 819Z" fill="#FF619E" fill-opacity="0.15"/>
<path d="M211.66 354L160.998 266.25H262.322L211.66 354Z" fill="#B01A55" fill-opacity="0.15"/>
<path d="M161.66 446L110.998 358.25H212.322L161.66 446Z" fill="#D24D81" fill-opacity="0.15"/>
<path d="M320.66 726L269.998 638.25H371.322L320.66 726Z" fill="#C65581" fill-opacity="0.15"/>
<path d="M490.66 79L439.998 -8.75H541.322L490.66 79Z" fill="#EF367E" fill-opacity="0.15"/>
<path d="M431.66 731L380.998 643.25H482.322L431.66 731Z" fill="#FF0063" fill-opacity="0.15"/>
<path d="M217.66 540L166.998 452.25H268.322L217.66 540Z" fill="#EF367E" fill-opacity="0.15"/>
<path d="M540.66 359L591.322 446.75H489.998L540.66 359Z" fill="#E191B1" fill-opacity="0.15"/>
<path d="M591.66 270L642.322 357.75H540.998L591.66 270Z" fill="#EF367E" fill-opacity="0.15"/>
<path d="M591.66 270L642.322 357.75H540.998L591.66 270Z" fill="#B04770" fill-opacity="0.15"/>
<path d="M597.66 84L648.322 171.75H546.998L597.66 84Z" fill="#FA8FB8" fill-opacity="0.15"/>
<path d="M430.66 -8L481.322 79.75H379.998L430.66 -8Z" fill="#00AFEF" fill-opacity="0.15"/>
<path d="M430.66 -8L481.322 79.75H379.998L430.66 -8Z" fill="#00AFEF" fill-opacity="0.15"/>
<path d="M430.66 -8L481.322 79.75H379.998L430.66 -8Z" fill="#67CFF5" fill-opacity="0.15"/>
<path d="M211.66 179L262.322 266.75H160.998L211.66 179Z" fill="#00AFEF" fill-opacity="0.15"/>
<path d="M269.66 271L320.322 358.75H218.998L269.66 271Z" fill="#00AFEF" fill-opacity="0.15"/>
<path d="M217.66 362L268.322 449.75H166.998L217.66 362Z" fill="#49B2D9" fill-opacity="0.15"/>
<path d="M593.66 453L644.322 540.75H542.998L593.66 453Z" fill="#71D9FF" fill-opacity="0.15"/>
<path d="M431.66 546L482.322 633.75H380.998L431.66 546Z" fill="#0B7095" fill-opacity="0.15"/>
<path d="M540.66 546L591.322 633.75H489.998L540.66 546Z" fill="#6EBFDD" fill-opacity="0.15"/>
<path d="M104.661 546L155.323 633.75H53.998L104.661 546Z" fill="#56D1FE" fill-opacity="0.15"/>
<path d="M487.66 639L538.322 726.75H436.998L487.66 639Z" fill="#41C3F2" fill-opacity="0.15"/>
<path d="M431.66 736L482.322 823.75H380.998L431.66 736Z" fill="#41C3F2" fill-opacity="0.15"/>
<path d="M269.66 639L320.322 726.75H218.998L269.66 639Z" fill="#00AFEF" fill-opacity="0.15"/>
<path d="M378.66 84L429.322 171.75H327.998L378.66 84Z" fill="#00AFEF" fill-opacity="0.15"/>
<path d="M378.66 84L429.322 171.75H327.998L378.66 84Z" fill="#03BCFF" fill-opacity="0.15"/>
<path d="M539.66 176L590.322 263.75H488.998L539.66 176Z" fill="#00AFEF" fill-opacity="0.15"/>
<path d="M51.6605 446L102.323 533.75H0.998047L51.6605 446Z" fill="#00AFEF" fill-opacity="0.15"/>
<path d="M377.66 825L428.322 912.75H326.998L377.66 825Z" fill="#00AFEF" fill-opacity="0.15"/>
<path d="M108.661 178L159.323 265.75H57.998L108.661 178Z" fill="#0481AE" fill-opacity="0.15"/>
<path d="M540.66 354L489.998 266.25H591.322L540.66 354Z" fill="#4DBEE8" fill-opacity="0.15"/>
<path d="M160.66 632L109.998 544.25H211.322L160.66 632Z" fill="#00AFEF" fill-opacity="0.15"/>
<path d="M270.66 260L219.998 172.25H321.322L270.66 260Z" fill="#0087B9" fill-opacity="0.15"/>
<path d="M597.66 79L546.998 -8.75H648.322L597.66 79Z" fill="#57BCE1" fill-opacity="0.15"/>
<path d="M597.66 447L546.998 359.25H648.322L597.66 447Z" fill="#2E7A96" fill-opacity="0.15"/>
<path d="M373.66 819L322.998 731.25H424.322L373.66 819Z" fill="#2E7A96" fill-opacity="0.15"/>
<path d="M546.66 167L495.998 79.25H597.322L546.66 167Z" fill="#3C788E" fill-opacity="0.15"/>
<path d="M219.66 167L168.998 79.25H270.322L219.66 167Z" fill="#B9E2F1" fill-opacity="0.15"/>
<path d="M266.66 77L215.998 -10.75H317.322L266.66 77Z" fill="#00AFEF" fill-opacity="0.15"/>
<path d="M108.661 537L57.998 449.25H159.323L108.661 537Z" fill="#B7ECFF" fill-opacity="0.15"/>
<path d="M431.66 540L380.998 452.25H482.322L431.66 540Z" fill="#00AFEF" fill-opacity="0.15"/>
<path d="M372.66 447L321.998 359.25H423.322L372.66 447Z" fill="#A8D6E7" fill-opacity="0.15"/>
</g>
<defs>
<clipPath id="clip0_150_2">
<rect width="600" height="925.75" fill="white"/>
</clipPath>
</defs>
</svg>
